<svg xmlns="http://www.w3.org/2000/svg" viewBox="0 0 509.12 219.57"><defs><style>.cls-1{fill:#141414;}</style></defs><title>logo-tfs</title><g id="Capa_2" data-name="Capa 2"><g id="Capa_1-2" data-name="Capa 1"><g id="Capa_2-2" data-name="Capa 2"><g id="Capa_1-2-2" data-name="Capa 1-2"><path class="cls-1" d="M52.62,51.29H0V0H163.37V51.29H111.51V219.57H52.62Z"/><path class="cls-1" d="M247.68,50.65v50h70v50.65h-70v68.28H189.51V0H335.56V50.65Z"/><path class="cls-1" d="M371.17,209.9l-11.28-2.6,5.76-42.42a509,509,0,0,0,63.81,5.62q24.41,0,24.38-16.88a10.53,10.53,0,0,0-5.47-9.38,94.69,94.69,0,0,0-16.1-7.52,104.71,104.71,0,0,1-10-4.05q-35.33-11.91-50.18-27.23A53,53,0,0,1,357.22,67q0-32.82,20-49.74T431.7.36a183.9,183.9,0,0,1,26.73,1.87q12.49,1.92,46.26,8.14l-4.38,43.15a592.11,592.11,0,0,0-62.55-4.69q-25.62,0-25.64,14.08c0,3.14,2.1,5.78,6.27,8a183.17,183.17,0,0,0,19.68,8.27c9.18,3.35,15.12,5.63,17.85,6.9a163.25,163.25,0,0,1,31.89,16.41,47,47,0,0,1,16.26,19.22,70.3,70.3,0,0,1,5,28.53,66.61,66.61,0,0,1-10.17,37.36,64.26,64.26,0,0,1-27.51,23.47,92.07,92.07,0,0,1-38.9,8A242.44,242.44,0,0,1,371.17,209.9Z"/></g></g></g></g></svg>